<?xml version="1.0" encoding="utf-8"?>
<!-- Generator: Adobe Illustrator 27.9.0, SVG Export Plug-In . SVG Version: 6.00 Build 0)  -->
<svg version="1.1" id="Layer_1" xmlns="http://www.w3.org/2000/svg" xmlns:xlink="http://www.w3.org/1999/xlink" x="0px" y="0px"
	 viewBox="0 0 1922.76 263.42" style="enable-background:new 0 0 1922.76 263.42;" xml:space="preserve">
<style type="text/css">
	.st0{fill:#ECEDEA;}
</style>
<g>
	<g>
		<polygon class="st0" points="213.65,258.59 213.65,83.65 162,83.65 162,5.54 345.07,5.54 345.07,83.65 293.43,83.65 
			293.43,258.59 		"/>
		<path class="st0" d="M1741.52,258.59v-78.11h99.94c2.4,0,4.36-1.96,4.36-4.36c0-1.83-1.15-3.48-2.87-4.1l-56.64-20.55
			c-0.94-0.32-1.85-0.65-2.75-1l-0.26-0.1c-28.84-11.17-48.08-39.47-47.87-70.41c0.28-41.03,34.26-74.42,75.75-74.42h87.65v78.11
			h-85.05c-2.43,0-4.41,1.98-4.41,4.41c0,1.81,1.08,3.41,2.76,4.09l60.41,24.46l0.35,0.14c27.52,11.35,45.43,37.91,45.62,67.67
			c0.12,19.42-7.49,37.85-21.45,51.9c-14.27,14.36-33.17,22.27-53.21,22.27H1741.52z"/>
		<path class="st0" d="M6.09,258.59v-78.11h99.94c2.4,0,4.36-1.96,4.36-4.36c0-1.83-1.15-3.48-2.87-4.1l-56.64-20.55
			c-0.94-0.32-1.85-0.65-2.75-1l-0.25-0.1C19.03,139.19-0.21,110.89,0,79.95C0.28,38.92,34.26,5.54,75.75,5.54h72.65v78.11H78.35
			c-2.43,0-4.41,1.98-4.41,4.41c0,1.81,1.08,3.41,2.76,4.09l60.39,24.45l0.37,0.15c27.52,11.35,45.43,37.91,45.62,67.67
			c0.12,19.42-7.5,37.85-21.46,51.9c-14.27,14.36-33.17,22.27-53.21,22.27H6.09z"/>
		<path class="st0" d="M442.65,263.42c-1.82,0-3.64-0.03-5.4-0.09c-52.85-1.73-78.55-29.16-78.55-83.86V5.54h77.14v171.29
			c0,2.94,1.92,5.51,4.79,6.41c0.61,0.27,1.27,0.4,2.02,0.4c0.75,0,1.41-0.13,2.02-0.4c2.87-0.91,4.79-3.47,4.79-6.41V5.54h77.14
			v173.94c0,54.7-25.69,82.13-78.55,83.86C446.29,263.39,444.47,263.42,442.65,263.42z"/>
		<polygon class="st0" points="1328.18,258.54 1328.18,140.63 1244.95,258.54 1180.11,258.54 1180.11,142.6 1104.32,258.54 
			1059.18,258.54 1059.18,179.8 1183.98,5.58 1257.61,5.58 1257.61,126.6 1344.52,5.58 1407.96,5.58 1407.96,258.54 		"/>
		<polygon class="st0" points="1600.15,258.59 1600.15,5.54 1679.93,5.54 1679.93,180.47 1727.92,180.47 1727.92,258.59 		"/>
		<path class="st0" d="M1421.59,258.59V5.54h80.78c55.02,0,99.78,44.76,99.78,99.78s-44.76,99.78-99.78,99.78h-1v53.5H1421.59z
			 M1501.37,129.14h1c13.14,0,23.83-10.69,23.83-23.83s-10.69-23.83-23.83-23.83h-1V129.14z"/>
		
			<rect x="645" y="92.17" transform="matrix(6.123234e-17 -1 1 6.123234e-17 639.4639 903.5854)" class="st0" width="253.05" height="79.78"/>
		<path class="st0" d="M540.22,258.59V5.54h71.32c69.75,0,126.5,56.75,126.5,126.5s-56.75,126.5-126.5,126.5
			c-0.57,0-1.14-0.02-1.71-0.06l-0.79-0.05l-0.05,0.15H540.22z M620,182.58l1.22-0.28c23.6-5.37,40.08-26.04,40.08-50.26
			s-16.48-44.89-40.08-50.26L620,81.5V182.58z"/>
	</g>
	<path class="st0" d="M938.43,263.42c-73.2,0-132.75-58.93-132.75-131.36S865.23,0.7,938.43,0.7c73.2,0,132.75,58.93,132.75,131.36
		S1011.63,263.42,938.43,263.42z M938.43,77.89c-29.61,0-53.7,24.45-53.7,54.5s24.09,54.5,53.7,54.5c29.61,0,53.7-24.45,53.7-54.5
		S968.04,77.89,938.43,77.89z"/>
</g>
</svg>
